<svg width="64" height="66" viewBox="0 0 64 66" fill="none" xmlns="http://www.w3.org/2000/svg">
<path d="M31.7953 65.5733C23.6604 65.5733 15.5256 62.4088 9.31537 56.0594C-3.10512 43.3606 -3.10512 22.7707 9.31537 10.0719C15.5058 3.72256 23.6604 0.537724 31.7953 0.537724C39.9301 0.537724 48.0649 3.70228 54.2752 10.0517C66.6957 22.7504 66.6957 43.3403 54.2752 56.0391C48.0649 62.3885 39.9301 65.5733 31.7953 65.5733Z" fill="#59A1C9"/>
<path d="M38.5412 20.6407H20.1287C18.7002 20.6407 17.5494 21.8173 17.5494 23.2779V23.5416C17.5494 23.5619 17.5494 23.5822 17.5494 23.6227V32.589C17.5494 32.6092 17.5494 32.6092 17.5494 32.6295V32.8932C17.5494 32.9135 17.5494 32.9135 17.5494 32.9338V41.9V42.1637C17.5494 42.4883 17.6089 42.7926 17.7081 43.0766C18.0653 44.0909 19.0176 44.8009 20.1287 44.8009H38.5412C39.9698 44.8009 41.1206 43.6243 41.1206 42.1637V41.9C41.1206 40.4395 39.9698 39.2629 38.5412 39.2629H22.966V35.5101H38.5412C39.9698 35.5101 41.1206 34.3335 41.1206 32.8729V32.6092C41.1206 31.1487 39.9698 29.9721 38.5412 29.9721H22.966V26.1584H38.5412C39.9698 26.1584 41.1206 24.9819 41.1206 23.5213V23.2576C41.1007 21.8173 39.9499 20.6407 38.5412 20.6407ZM55.6045 32.3455L50.4657 27.0916C50.3665 26.9901 50.2474 26.9496 50.1086 26.9496C49.9697 26.9496 49.8506 26.9901 49.7514 27.0916L49.5728 27.2741V38.1675L49.7514 38.3501C49.8506 38.4515 49.9697 38.4921 50.1086 38.4921C50.2474 38.4921 50.3665 38.4515 50.4657 38.3501L55.6045 33.0961C55.7831 32.8729 55.7831 32.5484 55.6045 32.3455Z" fill="white"/>
</svg>
